Land_normalized_pl06_filtered_grf
version=1
nRows=15
nColumns=37
inDegrees=yes
endheader
time		1_ground_force_vx		1_ground_force_vy		1_ground_force_vz		1_ground_force_px		1_ground_force_py		1_ground_force_pz		1_ground_torque_x		1_ground_torque_y		1_ground_torque_z		2_ground_force_vx		2_ground_force_vy		2_ground_force_vz		2_ground_force_px		2_ground_force_py		2_ground_force_pz		2_ground_torque_x		2_ground_torque_y		2_ground_torque_z		3_ground_force_vx		3_ground_force_vy		3_ground_force_vz		3_ground_force_px		3_ground_force_py		3_ground_force_pz		3_ground_torque_x		3_ground_torque_y		3_ground_torque_z		4_ground_force_vx		4_ground_force_vy		4_ground_force_vz		4_ground_force_px		4_ground_force_py		4_ground_force_pz		4_ground_torque_x		4_ground_torque_y		4_ground_torque_z		
0.782000		6.510050		-29.389866		-28.304310		0.146466		0.000000		0.226413		-0.031625		0.142773		0.137499		-5.477990		-25.848113		-7.294296		-0.141285		0.000000		0.258876		0.089274		0.421245		0.118875		22.360988		1.004718		-0.115890		0.375474		1.311024		1.913283		-0.100346		-0.004509		0.000520		-18.679919		-0.690194		1.661858		-0.265216		1.310001		1.923976		0.011567		0.000427		-0.001029		
0.785157		11.555911		-59.549479		-53.443977		0.147340		0.000000		0.230922		-0.057285		0.295207		0.264936		-3.738984		-64.710998		-27.969269		-0.139252		0.000000		0.257435		0.073993		1.281578		0.553976		22.319380		1.053111		-0.019330		0.375465		1.311048		1.913258		-0.101797		-0.004803		0.000088		-18.758173		-0.728119		1.602998		-0.265232		1.310001		1.923965		0.012940		0.000502		-0.001106		
0.788313		13.265149		-73.581109		-63.989443		0.148542		0.000000		0.233367		-0.072797		0.403827		0.351178		1.525875		-90.855247		-45.954681		-0.138778		0.000000		0.257991		-0.032829		1.950656		0.986713		22.261629		1.071227		0.006912		0.375459		1.311061		1.913232		-0.104010		-0.005005		-0.000032		-18.826667		-0.734819		1.593688		-0.265242		1.310004		1.923963		0.014490		0.000565		-0.001227		
0.791470		8.072835		-48.547552		-42.116058		0.153125		0.000000		0.236542		-0.065244		0.392409		0.340434		10.090657		-77.503729		-48.106895		-0.139904		0.000000		0.261648		-0.242493		1.861919		1.155782		22.202340		1.053950		-0.045270		0.375457		1.311065		1.913211		-0.105875		-0.005026		0.000216		-18.875324		-0.722746		1.618178		-0.265247		1.310007		1.923967		0.015367		0.000588		-0.001317		
0.794626		-6.661946		37.311796		26.759477		0.129619		0.000000		0.229049		-0.054698		0.304825		0.217573		20.053203		2.836516		-19.426271		-0.247330		0.000000		0.348101		0.123510		0.996056		0.687995		22.151401		1.008588		-0.153663		0.375459		1.311066		1.913198		-0.106370		-0.004843		0.000738		-18.896780		-0.706419		1.646024		-0.265245		1.310008		1.923979		0.015081		0.000564		-0.001313		
0.797783		-30.730598		194.053780		144.646286		0.140849		0.000000		0.235209		-0.011378		0.071717		0.053487		27.915505		165.528741		50.551812		-0.128018		0.000000		0.245174		-0.377564		-2.245048		-0.686701		22.114100		0.954169		-0.276952		0.375464		1.311067		1.913197		-0.105128		-0.004536		0.001317		-18.884808		-0.696803		1.648390		-0.265236		1.310006		1.923997		0.013603		0.000502		-0.001188		
0.800939		-60.054955		413.182886		295.366486		0.141890		0.000000		0.237595		-0.006932		0.047725		0.034103		29.727849		403.540152		161.581707		-0.129452		0.000000		0.246477		-0.484705		-6.580582		-2.635003		22.093235		0.914632		-0.370870		0.375474		1.311071		1.913209		-0.102642		-0.004249		0.001723		-18.834876		-0.697736		1.614284		-0.265221		1.310003		1.924023		0.011263		0.000418		-0.000966		
0.804096		-87.020133		666.726650		444.803925		0.141692		0.000000		0.240028		-0.087669		0.672164		0.448221		22.968994		683.164315		298.756266		-0.128383		0.000000		0.245403		-0.386077		-11.482977		-5.021647		22.087864		0.910076		-0.399007		0.375486		1.311078		1.913230		-0.100001		-0.004120		0.001807		-18.747795		-0.705031		1.554378		-0.265206		1.310000		1.924054		0.008618		0.000324		-0.000715		
0.807253		-103.025387		915.007785		550.895460		0.140937		0.000000		0.242922		-0.290289		2.580475		1.552632		8.784465		950.705285		433.717245		-0.126241		0.000000		0.242973		-0.144356		-15.613385		-7.122858		22.092946		0.949470		-0.341727		0.375500		1.311090		1.913260		-0.098324		-0.004225		0.001521		-18.635272		-0.709553		1.493578		-0.265193		1.309999		1.924092		0.006343		0.000241		-0.000509		
0.810409		-102.786141		1122.339362		582.204668		0.139910		0.000000		0.246424		-0.584802		6.388931		3.312933		-7.141055		1153.071500		534.237819		-0.123222		0.000000		0.239292		0.108783		-17.578045		-8.144197		22.101973		1.027621		-0.202062		0.375515		1.311101		1.913294		-0.098147		-0.004564		0.000897		-18.519017		-0.703153		1.456104		-0.265185		1.310002		1.924134		0.005102		0.000194		-0.000401		
0.813566		-87.557508		1268.917764		533.669180		0.138934		0.000000		0.250447		-0.846662		12.275493		5.161013		-16.019205		1259.297767		577.007147		-0.119566		0.000000		0.234487		0.209079		-16.436596		-7.531342		22.109396		1.126265		-0.007191		0.375526		1.311110		1.913331		-0.099230		-0.005055		0.000032		-18.422094		-0.682961		1.454452		-0.265184		1.310010		1.924180		0.005438		0.000202		-0.000429		
0.816722		-64.909990		1354.513021		431.881792		0.138277		0.000000		0.254582		-0.931612		19.456441		6.199711		-9.669869		1272.480292		558.423356		-0.115920		0.000000		0.229130		0.092005		-12.051117		-5.289527		22.110296		1.219545		0.199565		0.375534		1.311115		1.913368		-0.100798		-0.005560		-0.000909		-18.360092		-0.651937		1.488237		-0.265188		1.310023		1.924227		0.007595		0.000270		-0.000616		
0.819879		-44.027571		1393.302127		323.040678		0.137815		0.000000		0.258119		-0.829298		26.255216		6.085395		15.163776		1224.837352		496.424599		-0.113506		0.000000		0.224564		-0.062766		-5.145505		-2.086801		22.098497		1.283695		0.375080		0.375540		1.311116		1.913404		-0.102063		-0.005929		-0.001732		-18.339274		-0.615901		1.551593		-0.265196		1.310036		1.924273		0.011334		0.000380		-0.000959		
0.823035		-30.281628		1403.354432		250.060361		0.136886		0.000000		0.260171		-0.672059		31.147349		5.549899		54.940536		1159.834966		421.286286		-0.113894		0.000000		0.222859		0.131445		2.763773		1.003346		22.067604		1.303679		0.491325		0.375539		1.311111		1.913438		-0.102590		-0.006061		-0.002284		-18.361732		-0.581309		1.639086		-0.265203		1.310046		1.924315		0.015869		0.000502		-0.001417		
0.826192		-23.527470		1398.923724		233.829298		0.134862		0.000000		0.260068		-0.566855		33.706508		5.634126		100.004745		1113.905957		362.374730		-0.118027		0.000000		0.225556		0.840943		9.352582		3.041619		22.016906		1.273565		0.542084		0.375533		1.311096		1.913471		-0.102326		-0.005919		-0.002519		-18.430149		-0.555221		1.744112		-0.265208		1.310053		1.924354		0.020020		0.000603		-0.001895		
